<svg xmlns="http://www.w3.org/2000/svg" width="48" height="48" viewBox="0 0 48 48">
  <defs>
    <linearGradient id="g" x1="0" y1="0" x2="48" y2="48" gradientUnits="userSpaceOnUse">
      <stop offset="0" stop-color="#3D82F6"/>
      <stop offset="1" stop-color="#1D4ED8"/>
    </linearGradient>
  </defs>
  <rect width="48" height="48" rx="11" fill="url(#g)"/>
  <g transform="translate(10,10) scale(1.1667)" fill="none" stroke="#fff" stroke-width="1.8" stroke-linecap="round" stroke-linejoin="round">
    <path d="M12 3v18"/>
    <path d="M19.8 7.5 4.2 16.5"/>
    <path d="M19.8 16.5 4.2 7.5"/>
    <path d="M9 4 12 6 15 4"/>
    <path d="M17.4 5.4 17.2 9 20.4 10.6"/>
    <path d="M20.4 13.4 17.2 15 17.4 18.6"/>
    <path d="M15 20 12 18 9 20"/>
    <path d="M6.6 18.6 6.8 15 3.6 13.4"/>
    <path d="M3.6 10.6 6.8 9 6.6 5.4"/>
    <circle cx="12" cy="12" r="2.3" fill="#fff" stroke="none"/>
  </g>
</svg>
